<?xml version="1.0" encoding="UTF-8" standalone="no"?>
<!-- Created with Inkscape (http://www.inkscape.org/) -->

<svg
   width="512"
   height="512"
   viewBox="0 0 512 512"
   version="1.1"
   id="svg1"
   inkscape:version="1.3.2 (091e20e, 2023-11-25, custom)"
   sodipodi:docname="Icon_512_Tilted.svg"
   xmlns:inkscape="http://www.inkscape.org/namespaces/inkscape"
   xmlns:sodipodi="http://sodipodi.sourceforge.net/DTD/sodipodi-0.dtd"
   xmlns="http://www.w3.org/2000/svg"
   xmlns:svg="http://www.w3.org/2000/svg">
  <sodipodi:namedview
     id="namedview1"
     pagecolor="#505050"
     bordercolor="#eeeeee"
     borderopacity="1"
     inkscape:showpageshadow="0"
     inkscape:pageopacity="0"
     inkscape:pagecheckerboard="0"
     inkscape:deskcolor="#505050"
     inkscape:document-units="px"
     inkscape:zoom="0.70710678"
     inkscape:cx="78.488852"
     inkscape:cy="225.56706"
     inkscape:window-width="1920"
     inkscape:window-height="1009"
     inkscape:window-x="-8"
     inkscape:window-y="-8"
     inkscape:window-maximized="1"
     inkscape:current-layer="layer1" />
  <defs
     id="defs1" />
  <g
     inkscape:label="Layer 1"
     inkscape:groupmode="layer"
     id="layer1">
    <g
       id="g15"
       style="display:inline"
       transform="matrix(2.2974647,-1.6087021,1.6087021,2.2974647,-758.86384,-119.54651)">
	<path
   id="path12"
   style="display:inline;fill:#e7373d;fill-opacity:1"
   class="st0"
   d="m 191.44922,256.25 c -1.66,2.57 -3.57961,5.1993 -5.84961,7.7793 -5.13,6.28998 -16.33938,14.23984 -19.10938,15.08984 -2.76998,0.85 -13.28007,-9.61891 -14.33007,-10.62891 -0.95,-0.90998 -1.87088,-1.38093 -4.13086,-0.46093 -1.20071,0.76825 -2.35102,1.56721 -3.42383,2.35547 1.07388,-0.79018 2.23065,-1.59313 3.43359,-2.36524 -0.26,0.1 -0.51859,0.21133 -0.80859,0.36133 -2.99,1.64 -5.75055,2.92899 -10.31055,7.95898 -1.34,1.54 -2.31984,2.6711 -0.33984,6.6211 1.93,3.84999 5.01086,9.96922 5.38086,10.69922 0.75,-0.47 4.0593,-2.54938 5.52929,-3.35938 0.48346,-0.26344 0.85997,-0.4452 1.14454,-0.60937 -0.2856,0.17033 -0.64553,0.35535 -1.14454,0.6289 -1.46998,0.81 -4.77929,2.87938 -5.52929,3.35938 0,0 -2.4e-4,0.01 0.01,0.01 -2.34998,1.49 -13.5915,7.78963 -24.02148,19.34961 -8.1e-4,0.003 -0.001,0.005 -0.002,0.008 -0.59209,0.66141 -1.18527,1.33267 -1.77735,2.02343 -10.90998,12.87998 -11.86023,22.29877 -9.49023,29.71875 2.38,7.42 12.92998,18.70071 43.91992,21.97071 26.65994,2.47998 56.76123,-1.61932 85.70117,-7.0293 7.57998,-1.52 7.6686,-2.86072 11.8086,-13.2207 8.37998,7.35998 8.59103,8.19109 16.04101,6.12109 14.11998,-3.83 39.53041,-10.87102 49.90039,-16.29102 9.01998,-4.69998 10.38992,-9.41961 8.91992,-12.84961 -0.045,0.11705 -0.12394,0.23419 -0.23047,0.35352 0.10187,-0.11591 0.17696,-0.23 0.22071,-0.34375 -0.1,-0.24 -0.22158,-0.46922 -0.35156,-0.69922 -1.75,-3.06 -6.69004,-6.63986 -26,-13.33984 -19.74998,-6.78 -33.79975,-9.17032 -56.67969,-17.57032 -16.30998,-5.65998 -20.82,-10.87158 -18.5,-27.35156 C 211.30971,258.50908 201.9292,256.74 191.44922,256.25 Z m -47.08203,14.31055 c -1.00743,0.74769 -1.93342,1.48181 -2.74219,2.16797 0.8085,-0.68581 1.73497,-1.41958 2.74219,-2.16797 z m -2.95508,2.34961 c -0.79295,0.68209 -1.46478,1.31195 -1.97266,1.85156 0.50891,-0.53955 1.17868,-1.16895 1.97266,-1.85156 z m -2.14649,2.04101 c -0.18607,0.20567 -0.35135,0.40063 -0.48242,0.57422 0.132,-0.17435 0.2948,-0.36737 0.48242,-0.57422 z m -0.58398,0.71289 c -0.12698,0.18098 -0.21938,0.34022 -0.27148,0.47461 0.0523,-0.13423 0.14405,-0.29358 0.27148,-0.47461 z m 7.35742,0.45508 c 1.72,0 3.11133,1.39133 3.11133,3.11133 0,1.72 -1.39133,3.10937 -3.11133,3.10937 -1.72,0 -3.10937,-1.38937 -3.10937,-3.10937 0,-1.72 1.38937,-3.11133 3.10937,-3.11133 z m -7.66406,0.11133 c -0.0251,0.0668 -0.0316,0.14172 -0.0273,0.2207 -0.006,-0.0795 0.004,-0.15331 0.0273,-0.2207 z m 0.004,0.38867 c 0.0122,0.0463 0.0291,0.095 0.0488,0.14453 -0.0203,-0.0498 -0.036,-0.098 -0.0488,-0.14453 z m 0.14843,0.35156 c 0.12825,0.23575 0.33225,0.50554 0.58204,0.79883 -0.25248,-0.29483 -0.45103,-0.56149 -0.58204,-0.79883 z m 0.83204,1.07813 c 0.55567,0.61171 1.34124,1.3511 2.19726,2.14844 -0.8612,-0.80112 -1.63482,-1.53274 -2.19726,-2.14844 z m 40.5,10.75195 c 5.35998,0 9.71093,4.34899 9.71093,9.70899 0,5.35998 -4.35095,9.71093 -9.71093,9.71093 -5.36,0 -9.70899,-4.35095 -9.70899,-9.71093 0,-5.36 4.33899,-9.70899 9.70899,-9.70899 z m -30.76758,0.54102 c -0.005,0.007 -0.0127,0.0131 -0.0176,0.0195 0.005,-0.007 0.0126,-0.0129 0.0176,-0.0195 z m 78.8789,10.61914 c 3.67,0 6.64844,2.97844 6.64844,6.64844 0,3.66998 -2.97844,6.65039 -6.64844,6.65039 -3.66998,0 -6.65039,-2.98041 -6.65039,-6.65039 0,-3.67 2.98041,-6.64844 6.65039,-6.64844 z m 42.34961,16.16992 c 3.31,0 6,2.69 6,6 0,3.31 -2.69,6 -6,6 -3.30998,0 -6,-2.69 -6,-6 0,-3.31 2.68002,-6 6,-6 z m -108.68945,14.59961 c 5.47998,0 9.92969,4.43969 9.92969,9.92969 0,0.6 -0.0599,1.18976 -0.16993,1.75976 0.006,2.1e-4 0.0117,-2.1e-4 0.0176,0 -0.83399,4.63511 -4.88129,8.16016 -9.75781,8.16016 -5.42998,0 -9.83992,-4.3593 -9.91992,-9.7793 -0.007,-10e-4 -0.0141,-0.003 -0.0215,-0.004 -0.001,-0.0454 -0.01,-0.0913 -0.01,-0.13672 0,-5.48 4.44164,-9.92969 9.93164,-9.92969 z m 70.41992,6.28906 c 2.08,0 3.85875,1.21094 4.71875,2.96094 0.004,-5.2e-4 0.009,-0.001 0.0137,-0.002 0.33787,0.69799 0.55664,1.47384 0.55664,2.30078 0,2.90998 -2.35953,5.27148 -5.26953,5.27148 -2.90998,0 -5.26953,-2.3615 -5.26953,-5.27148 0,-0.43 0.0702,-0.84024 0.16016,-1.24024 -0.006,5.6e-4 -0.0117,10e-4 -0.0176,0.002 0.56365,-2.30482 2.63111,-4.02149 5.10742,-4.02149 z m -42.68164,11.41016 c 3.22,0 5.82031,2.60031 5.82031,5.82031 0,3.22 -2.61031,5.82031 -5.82031,5.82031 -3.21,0 -5.81836,-2.60031 -5.81836,-5.82031 0,-3.22 2.59836,-5.82031 5.81836,-5.82031 z m -40.77157,-64.16407 a 6.6367173,4.6972675 0 0 0 -6.63672,4.69727 6.6367173,4.6972675 0 0 0 0.5664,1.88477 10.269531,6.046875 0 0 0 -0.64843,2.08398 10.269531,6.046875 0 0 0 10.26953,6.04688 10.269531,6.046875 0 0 0 10.26953,-6.04688 10.269531,6.046875 0 0 0 -7.74805,-5.86133 6.6367173,4.6972675 0 0 0 -6.07226,-2.80469 z" />

	<path
   class="st1"
   d="m 227.05,239.94 c -0.86,-5.75 -18.59,-9.19 -24.58,-4.12 -1.89,1.91 -3.75,7.16 -7.09,13.61 9.39,0.21 18.17,1.9 27.91,7.25 2.03,-6.95 4.41,-12.45 3.76,-16.74 z"
   id="path13"
   style="fill:#e7373d" />
<path
   class="st0"
   d="m 148.68,287.87 c -3.52,-5.39 -11.01,-10.2 -10.29,-11.69 0.44,-1.27 4.68,-4.97 9.65,-8.16 -0.26,0.1 -0.52,0.21 -0.81,0.36 -2.99,1.64 -5.75,2.93 -10.31,7.96 -1.34,1.54 -2.32,2.67 -0.34,6.62 1.93,3.85 5.01,9.97 5.38,10.7 0.75,-0.47 4.06,-2.55 5.53,-3.36 1.67,-0.91 2.22,-0.85 1.19,-2.43 z"
   id="path12-5"
   style="display:inline;fill:#d52c36" />
<path
   class="st0"
   d="m 322.95,323.5 c -1.4,3.64 -33.1,8.41 -60.3,12.72 -10.37,1.64 -18.55,2.85 -25.89,3.76 0.34,0.7 0.56,1.48 0.56,2.31 0,2.91 -2.36,5.27 -5.27,5.27 -2.91,0 -5.27,-2.36 -5.27,-5.27 0,-0.43 0.07,-0.84 0.16,-1.24 -8.95,0.84 -17.5,1.23 -28.64,1.44 -8.48,0.16 -17.78,0.26 -26.91,-0.07 -0.83,4.64 -4.88,8.17 -9.76,8.17 -5.43,0 -9.84,-4.36 -9.92,-9.78 -8.66,-1.23 -16.35,-3.25 -21.96,-6.47 -11.69,-6.71 -14,-14.25 -11.8,-21.31 -0.6,0.67 -1.2,1.35 -1.8,2.05 -10.91,12.88 -11.86,22.3 -9.49,29.72 2.38,7.42 12.93,18.7 43.92,21.97 26.66,2.48 56.76,-1.62 85.7,-7.03 7.58,-1.52 7.67,-2.86 11.81,-13.22 8.38,7.36 8.59,8.19 16.04,6.12 14.12,-3.83 39.53,-10.87 49.9,-16.29 9.02,-4.7 10.39,-9.42 8.92,-12.85 z m -133.6,36.58 c -3.21,0 -5.82,-2.6 -5.82,-5.82 0,-3.22 2.6,-5.82 5.82,-5.82 3.22,0 5.82,2.6 5.82,5.82 0,3.22 -2.61,5.82 -5.82,5.82 z"
   id="path15-3"
   style="display:inline;fill:#d52c36" />

	
	
</g>
  </g>
</svg>
